<svg viewBox="0 0 640 640" xmlns="http://www.w3.org/2000/svg"><path d="m168.19 40h303.62c44.57 0 60.74 4.64 77 13.36a90.76 90.76 0 0 1 37.8 37.8c8.72 16.29 13.36 32.46 13.36 77v303.65c0 44.57-4.64 60.74-13.36 77a90.76 90.76 0 0 1 -37.8 37.8c-16.29 8.72-32.46 13.36-77 13.36h-303.62c-44.57 0-60.74-4.64-77-13.36a90.76 90.76 0 0 1 -37.8-37.8c-8.75-16.26-13.39-32.43-13.39-77v-303.62c0-44.57 4.64-60.74 13.36-77a90.76 90.76 0 0 1 37.8-37.8c16.29-8.75 32.46-13.39 77.03-13.39z" fill="#ed225d" fill-rule="evenodd"/></svg>