<svg viewBox="0 0 640 640" xmlns="http://www.w3.org/2000/svg"><g fill="#ed225d"><path d="m164.06 153.14a163.1 163.1 0 0 0 -79 20.31v-114.77a42.54 42.54 0 0 0 -85.06 0v380.06a42.53 42.53 0 0 0 80.33 19.5 163.05 163.05 0 0 0 83.73 23c90.47 0 164.07-73.6 164.07-164.06s-73.6-164.04-164.07-164.04zm0 243.06a79 79 0 1 1 79-79 79.08 79.08 0 0 1 -79 79z"/><path d="m475.94 623.85a164.66 164.66 0 0 1 -142.09-82 42.54 42.54 0 0 1 73.64-42.61 79 79 0 1 0 7.92-90.24 42.54 42.54 0 0 1 -74.69-33.28l26.13-186a42.55 42.55 0 0 1 42.15-36.58h154.65a42.54 42.54 0 0 1 0 85.07h-117.65l-8.73 62.12a164.83 164.83 0 0 1 38.72-4.61c90.46 0 164.06 73.6 164.06 164.07s-73.65 164.06-164.11 164.06z"/></g></svg>