<svg viewBox="0 0 640 640" xmlns="http://www.w3.org/2000/svg"><g fill="#ed225d"><path d="m157.5 159.82a156.51 156.51 0 0 0 -75.83 19.5v-110.18a40.84 40.84 0 1 0 -81.67 0v364.86a40.83 40.83 0 0 0 77.12 18.72 156.45 156.45 0 0 0 80.38 22.11c86.85 0 157.5-70.65 157.5-157.5s-70.65-157.51-157.5-157.51zm0 233.33a75.83 75.83 0 1 1 75.84-75.83 75.92 75.92 0 0 1 -75.84 75.83z"/><path d="m482.5 611.7a158.06 158.06 0 0 1 -136.4-78.7 40.83 40.83 0 0 1 70.69-40.9 75.85 75.85 0 1 0 7.6-86.62 40.83 40.83 0 0 1 -71.7-32l25.09-178.48a40.83 40.83 0 0 1 40.44-35.15h148.48a40.84 40.84 0 1 1 0 81.67h-113l-8.38 59.63a158.19 158.19 0 0 1 37.17-4.43c86.84 0 157.5 70.66 157.5 157.51s-70.65 157.47-157.49 157.47z"/></g></svg>