<svg xmlns="http://www.w3.org/2000/svg" viewBox="0 0 1152 624"><defs><style>.a{fill:#ed225d;}.b{fill:#fff;}</style></defs><path class="a" d="M344.4,227.46A32.6,32.6,0,1,0,377,194.87,32.64,32.64,0,0,0,344.4,227.46Z"/><path class="a" d="M326.4,227.46A50.65,50.65,0,0,1,377,176.87V53a36,36,0,0,0-36-36H53A36,36,0,0,0,17,53V341a36,36,0,0,0,36,36H341a36,36,0,0,0,36-36V278.06A50.66,50.66,0,0,1,326.4,227.46Z"/><path class="b" d="M204,149.71a77.32,77.32,0,0,0-37.44,9.62V104.94a20.16,20.16,0,0,0-40.31,0V285.06a20.16,20.16,0,0,0,38.07,9.24A77.74,77.74,0,1,0,204,149.71Zm0,115.19a37.44,37.44,0,1,1,37.44-37.44A37.49,37.49,0,0,1,204,264.9Z"/><circle class="a" cx="775" cy="467.79" r="32.6"/><path class="a" d="M1099,247H811a36,36,0,0,0-36,36V417.19a50.6,50.6,0,1,1,0,101.19V571a36,36,0,0,0,36,36h288a36,36,0,0,0,36-36V283A36,36,0,0,0,1099,247Z"/><path class="a" d="M716,478.79c-44.88,0-78.92-13.47-104.06-41.16-21.81-24-34.2-55.52-46.18-86-11.77-29.93-22.89-58.21-42-79.24-21-23.16-48.91-34-87.77-34a11,11,0,0,1,0-22c44.88,0,78.92,13.46,104.06,41.16,21.81,24,34.2,55.52,46.18,86,11.77,29.93,22.89,58.2,42,79.24,21,23.16,48.91,34,87.77,34a11,11,0,0,1,0,22Z"/><path class="b" d="M955.15,545.54a78,78,0,0,1-67.34-38.86,20.16,20.16,0,0,1,34.9-20.19,37.44,37.44,0,1,0,3.75-42.76A20.16,20.16,0,0,1,891.06,428l12.39-88.15a20.16,20.16,0,0,1,20-17.35h73.31a20.16,20.16,0,0,1,0,40.32H940.94l-4.14,29.44a77.76,77.76,0,1,1,18.35,153.32Z"/></svg>