<svg viewBox="0 0 640 640" xmlns="http://www.w3.org/2000/svg"><g fill="#ed225d"><circle cx="423.07" cy="52.21" r="52.21" transform="matrix(.94362777 -.33100852 .33100852 .94362777 6.57 142.98)"/><circle cx="216.93" cy="587.79" r="52.21" transform="matrix(.95706691 -.28986711 .28986711 .95706691 -161.02 88.08)"/><circle cx="216.93" cy="318.15" r="52.21" transform="matrix(.92387953 -.38268343 .38268343 .92387953 -105.24 107.23)"/><path d="m534.23 52.21h-32.17a79 79 0 1 1 -158 0h-238.29a53.56 53.56 0 0 0 -53.56 53.56v428.46a53.56 53.56 0 0 0 53.56 53.56h32.17a79 79 0 1 1 158 0h238.29a53.56 53.56 0 0 0 53.56-53.56v-428.46a53.56 53.56 0 0 0 -53.56-53.56zm-317.3 374.39a107.73 107.73 0 0 1 -55.35-15.23 28.11 28.11 0 0 1 -53.09-12.89v-251.21a28.12 28.12 0 0 1 56.23 0v75.87a108.43 108.43 0 1 1 52.21 203.46zm206.14 94.24a108.83 108.83 0 0 1 -93.91-54.19 28.11 28.11 0 1 1 48.67-28.16 52.23 52.23 0 1 0 5.23-59.64 28.12 28.12 0 0 1 -49.37-22l17.31-122.94a28.11 28.11 0 0 1 27.84-24.2h102.21a28.12 28.12 0 0 1 0 56.23h-77.8l-5.77 41.06a108.45 108.45 0 1 1 25.59 213.84z"/></g></svg>