<svg viewBox="0 0 18 18" xmlns="http://www.w3.org/2000/svg"><g fill="#777"><path d="m17 10.25h-4.2a.75.75 0 0 0 0 1.5h2.62a8.84 8.84 0 0 1 -13.8-1.17.75.75 0 0 0 -1.24.84 10.34 10.34 0 0 0 15.87 1.63v2.15a.75.75 0 1 0 1.5 0v-4.2a.76.76 0 0 0 -.75-.75z"/><path d="m17.62 6.58a10.32 10.32 0 0 0 -15.87-1.58v-2.2a.76.76 0 0 0 -.75-.75.76.76 0 0 0 -.75.75v4.2a.76.76 0 0 0 .75.75h4.2a.75.75 0 0 0 0-1.5h-2.62a8.84 8.84 0 0 1 13.8 1.17.75.75 0 0 0 .62.33.74.74 0 0 0 .42-.13.75.75 0 0 0 .2-1.04z"/></g></svg>