<svg viewBox="0 0 18 18" xmlns="http://www.w3.org/2000/svg"><g fill="#777"><path d="m16.5 11.43a.76.76 0 0 0 -.75.75v1.59a2 2 0 0 1 -2 2h-9.52a2 2 0 0 1 -2-2v-9.54a2 2 0 0 1 2-2h4.77a.75.75 0 0 0 0-1.48h-4.77a3.48 3.48 0 0 0 -3.48 3.48v9.54a3.48 3.48 0 0 0 3.48 3.48h9.54a3.48 3.48 0 0 0 3.48-3.48v-1.59a.76.76 0 0 0 -.75-.75z"/><path d="m14.76 5c-9.88.76-10 7.9-10 8a.75.75 0 0 0 1.5 0c0-.25.1-5.74 8.36-6.47l-2.85 2.84a.75.75 0 0 0 0 1.06.75.75 0 0 0 1.06 0l4.17-4.2a.78.78 0 0 0 .19-.23.73.73 0 0 0 0-.58.78.78 0 0 0 -.19-.25l-4.17-4.17a.75.75 0 0 0 -1.06 1z"/></g></svg>