<svg viewBox="0 0 24 24" xmlns="http://www.w3.org/2000/svg"><path d="m3.94 23.37a3.27 3.27 0 0 1 -2.34-1 3.31 3.31 0 0 1 0-4.69l7.07-7.08a7.55 7.55 0 0 1 10.25-9.3 1 1 0 0 1 .57.73 1 1 0 0 1 -.27.89l-4.11 4.08a.09.09 0 0 0 0 .12l1.74 1.74a.09.09 0 0 0 .12 0l4.11-4.11a1 1 0 0 1 .92-.25 1 1 0 0 1 .74.57 7.55 7.55 0 0 1 -9.34 10.25l-7.11 7.08a3.31 3.31 0 0 1 -2.35.97zm11.87-20.74a5.54 5.54 0 0 0 -5.05 7.84 1 1 0 0 1 -.21 1.11l-7.55 7.55a1.32 1.32 0 0 0 1.87 1.87l7.54-7.54a1 1 0 0 1 1.12-.21 5.54 5.54 0 0 0 4.58 0 5.57 5.57 0 0 0 3.2-5.87l-2.93 2.94a2.11 2.11 0 0 1 -2.94 0l-1.75-1.76a2.1 2.1 0 0 1 0-2.93l2.93-2.93a5.52 5.52 0 0 0 -.81-.07z" fill="#666"/></svg>