<svg height="30" viewBox="0 0 81 30" width="81" xmlns="http://www.w3.org/2000/svg"><g fill="none" fill-rule="evenodd"><rect fill="#50d764" height="30" rx="4" width="81"/><path d="m17.6748047 20v-6.1660156h1.5039062v-1.2304688h-1.5039062v-.65625c0-.8157552.3964844-1.2236328 1.1894531-1.2236328.2415365 0 .4534505.0182292.6357422.0546875l.0410156-1.29882811c-.328125-.08203125-.6380208-.12304688-.9296875-.12304688-.8203125 0-1.4583333.22330729-1.9140625.66992189-.4557291.4466146-.6835937 1.0800781-.6835937 1.9003906v.6767578h-1.1279297v1.2304688h1.1279297v6.1660156zm5.1201172.1367188c.8977864 0 1.5904948-.2871094 2.078125-.8613282l.0410156.7246094h1.5654297v-7.3964844h-1.6611328v5.3115235c-.2825521.578776-.8271485.868164-1.6337891.868164-.7792969 0-1.1689453-.469401-1.1689453-1.4082031v-4.7714844h-1.6611328v4.7919922c0 .8886719.2062174 1.5677083.6186523 2.0371094.4124349.469401 1.019694.7041016 1.8217774.7041016zm7.0136719-.1367188v-5.2636719c.328125-.6061198.8271484-.9091797 1.4970703-.9091797.4602864 0 .7918294.112793.9946289.3383789.2027994.225586.3041992.5730795.3041992 1.0424805v4.7919922h1.6611328v-4.8876953c-.0273438-1.7636719-.8111979-2.6455078-2.3515625-2.6455078-.8886719 0-1.6064453.3304036-2.1533203.9912109l-.0478516-.8544922h-1.5654297v7.3964844zm9.2080078.1367188c.5332031 0 1.0299479-.116211 1.4902343-.3486329.4602865-.2324218.8248698-.5480143 1.09375-.9467773s.4124349-.8282878.4306641-1.2885742h-1.5654297c-.0182292.3554687-.1640625.6539713-.4375.8955078-.2734375.2415364-.617513.3623047-1.0322265.3623047-.546875 0-.9650066-.1971029-1.2543946-.5913086s-.434082-.9923503-.434082-1.7944336v-.2666016c.0045573-.7929687.1526693-1.3842773.4443359-1.7739258.2916667-.3896484.7063802-.5844726 1.2441407-.5844726.4192708 0 .7644856.1367187 1.0356445.4101562.2711588.2734375.4158528.6220703.434082 1.0458985h1.5654297c-.0273438-.8339844-.3178711-1.5073242-.871582-2.0200196-.553711-.5126953-1.2703451-.7690429-2.1499024-.7690429-1.0390625 0-1.859375.3383789-2.4609375 1.0151367s-.9023437 1.5779622-.9023437 2.7036133v.1708984c0 1.1803386.3030599 2.1054688.9091797 2.7753906.6061198.6699219 1.4264323 1.0048829 2.4609375 1.0048829zm6.6035156 0c.3509114 0 .7154948-.0524089 1.09375-.1572266v-1.2851563c-.1959636.045573-.3896484.0683594-.5810547.0683594-.2871094 0-.4864909-.0626627-.5981445-.1879883-.1116537-.1253255-.1674805-.3292643-.1674805-.6118164v-4.1289062h1.3056641v-1.2304688h-1.3056641v-1.7978515h-1.6611328v1.7978515h-1.2167969v1.2304688h1.2167969v4.1904297c0 1.4082031.6380208 2.1123047 1.9140625 2.1123047zm3.2607422-8.5791016c.3007812 0 .5332031-.0831706.6972656-.2495117.1640625-.1663412.2460938-.3748373.2460938-.6254883 0-.2552083-.0820313-.4671224-.2460938-.6357422-.1640625-.16861979-.3964844-.25292969-.6972656-.25292969-.3007813 0-.5320638.0843099-.6938477.25292969-.1617838.1686198-.2426758.3805339-.2426758.6357422 0 .250651.080892.4591471.2426758.6254883.1617839.1663411.3930664.2495117.6938477.2495117zm.8271484 8.4423828v-7.3964844h-1.6611328v7.3964844zm4.9423828.1367188c.6835938 0 1.2862956-.1572266 1.8081055-.4716797.5218099-.3144532.9228516-.7587891 1.203125-1.3330079.2802734-.5742187.4204101-1.2259114.4204101-1.9550781l-.0068359-.3896484c-.0501302-1.061849-.3862305-1.9140625-1.0083008-2.5566406-.6220703-.6425782-1.4321289-.9638672-2.4301757-.9638672-.6744792 0-1.2714844.1560872-1.7910157.4682617-.5195312.3121745-.9228515.7587891-1.2099609 1.3398437-.2871094.5810547-.4306641 1.2338868-.4306641 1.9584961v.0820313c0 1.1575521.3133138 2.0838216.9399414 2.7788086s1.4617513 1.0424805 2.5053711 1.0424805zm0-1.3261719c-.5605468 0-.9980468-.2153321-1.3125-.6459961-.3144531-.4306641-.4716797-1.02653-.4716797-1.7875977 0-.8567708.1595052-1.5004883.4785157-1.9311523.3190104-.4306641.7496744-.6459961 1.2919922-.6459961.5514322 0 .9877929.21875 1.309082.65625.321289.4375.4819336 1.0299479.4819336 1.7773437 0 .843099-.1560873 1.4833985-.4682617 1.9208985-.3121745.4375-.7485352.65625-1.3090821.65625zm6.4736328 1.1894531v-5.2636719c.328125-.6061198.8271485-.9091797 1.4970704-.9091797.4602864 0 .7918294.112793.9946289.3383789.2027994.225586.3041992.5730795.3041992 1.0424805v4.7919922h1.6611328v-4.8876953c-.0273438-1.7636719-.8111979-2.6455078-2.3515625-2.6455078-.8886719 0-1.6064453.3304036-2.1533203.9912109l-.0478516-.8544922h-1.5654297v7.3964844z" fill="#fff" fill-rule="nonzero"/></g></svg>