<svg height="30" viewBox="0 0 81 30" width="81" xmlns="http://www.w3.org/2000/svg"><g fill="none" fill-rule="evenodd"><rect fill="#44d7b6" height="30" rx="4" width="81"/><path d="m25.0576172 20.1367188c.6835937 0 1.2862956-.1572266 1.8081055-.4716797.5218099-.3144532.9228515-.7587891 1.203125-1.3330079.2802734-.5742187.4204101-1.2259114.4204101-1.9550781l-.0068359-.3896484c-.0501302-1.061849-.3862305-1.9140625-1.0083008-2.5566406-.6220703-.6425782-1.4321289-.9638672-2.4301758-.9638672-.6744792 0-1.2714844.1560872-1.7910156.4682617-.5195313.3121745-.9228516.7587891-1.2099609 1.3398437-.2871094.5810547-.4306641 1.2338868-.4306641 1.9584961v.0820313c0 1.1575521.3133138 2.0838216.9399414 2.7788086s1.4617513 1.0424805 2.5053711 1.0424805zm0-1.3261719c-.5605469 0-.9980469-.2153321-1.3125-.6459961-.3144531-.4306641-.4716797-1.02653-.4716797-1.7875977 0-.8567708.1595052-1.5004883.4785156-1.9311523.3190104-.4306641.7496745-.6459961 1.2919922-.6459961.5514323 0 .987793.21875 1.309082.65625.3212891.4375.4819336 1.0299479.4819336 1.7773437 0 .843099-.1560872 1.4833985-.4682617 1.9208985s-.7485351.65625-1.309082.65625zm8.4423828 1.3261719c.8977865 0 1.6030273-.3395183 2.1157227-1.0185547.5126953-.6790365.7690429-1.5927735.7690429-2.741211v-.0957031c0-1.203125-.257487-2.1396484-.7724609-2.8095703-.514974-.6699219-1.2236328-1.0048828-2.1259766-1.0048828-.8111979 0-1.4560547.2825521-1.9345703.8476562v-3.8144531h-1.6611328v10.5h1.5039062l.0820313-.7998047c.4830729.624349 1.1575521.9365235 2.0234375.9365235zm-.4169922-1.3535157c-.7246094 0-1.235026-.321289-1.53125-.9638672v-3.0488281c.2916667-.6289062.7975261-.9433594 1.5175781-.9433594.5377605 0 .9479167.2005209 1.2304688.6015625.2825521.4010417.4238281 1.0026042.4238281 1.8046875v.2119141c-.0091146.7838542-.1549479 1.3694661-.4375 1.7568359s-.6835937.5810547-1.203125.5810547zm5.5576172-7.2255859c.3007812 0 .5332031-.0831706.6972656-.2495117.1640625-.1663412.2460938-.3748373.2460938-.6254883 0-.2552083-.0820313-.4671224-.2460938-.6357422-.1640625-.16861979-.3964844-.25292969-.6972656-.25292969s-.5320638.0843099-.6938477.25292969c-.1617838.1686198-.2426757.3805339-.2426757.6357422 0 .250651.0808919.4591471.2426757.6254883.1617839.1663411.3930665.2495117.6938477.2495117zm-1.3466797 11.4296875c.7246094 0 1.2749024-.1993815 1.6508789-.5981445.3759766-.3987631.5639649-.9763998.5639649-1.7329102v-8.0527344h-1.6611329v8.1142578c-.0136718.6015625-.2962239.9023438-.8476562.9023438-.21875 0-.4147135-.0205078-.5878906-.0615234v1.3125c.2825521.0774739.5764974.1162109.8818359.1162109zm7.2460938-2.8505859c.6152343 0 1.1700846-.1219076 1.6645507-.3657227.4944662-.2438151.8898112-.5867513 1.1860352-1.0288086l-.8955078-.8544922c-.4785156.6152344-1.0983073.9228516-1.859375.9228516-.5423177 0-.9923503-.1777344-1.3500977-.5332031-.3577474-.3554688-.5616862-.8385417-.6118164-1.4492188h4.8330078v-.6699219c0-1.1757812-.2745768-2.0849609-.8237304-2.727539-.5491537-.6425782-1.3273112-.9638672-2.3344727-.9638672-.6334635 0-1.2076823.1617838-1.7226562.4853515-.514974.3235677-.9148763.7758789-1.1997071 1.3569336-.2848307.5810547-.4272461 1.2407227-.4272461 1.9790039v.2050782c0 1.1028645.3269857 1.9858398.9809571 2.6489257.6539713.663086 1.5073242.994629 2.5600586.994629zm1.3261718-4.5253907h-3.165039c.0774739-.5696614.2563476-1.0139974.5366211-1.3330078.2802734-.3190104.6482747-.4785156 1.1040039-.4785156.4602864 0 .8203125.1424154 1.0800781.4272461s.4078776.7052409.4443359 1.2612304zm5.9882813 4.5253907c.5332031 0 1.0299479-.116211 1.4902344-.3486329.4602864-.2324218.8248698-.5480143 1.09375-.9467773s.4124349-.8282878.430664-1.2885742h-1.5654297c-.0182291.3554687-.1640625.6539713-.4375.8955078-.2734375.2415364-.617513.3623047-1.0322265.3623047-.546875 0-.9650065-.1971029-1.2543946-.5913086-.289388-.3942057-.434082-.9923503-.434082-1.7944336v-.2666016c.0045573-.7929687.1526693-1.3842773.444336-1.7739258.2916666-.3896484.7063802-.5844726 1.2441406-.5844726.4192708 0 .7644857.1367187 1.0356445.4101562.2711589.2734375.4158529.6220703.434082 1.0458985h1.5654297c-.0273437-.8339844-.3178711-1.5073242-.871582-2.0200196-.5537109-.5126953-1.2703451-.7690429-2.1499024-.7690429-1.0390624 0-1.859375.3383789-2.4609374 1.0151367-.6015626.6767578-.9023438 1.5779622-.9023438 2.7036133v.1708984c0 1.1803386.3030599 2.1054688.9091797 2.7753906.6061198.6699219 1.4264323 1.0048829 2.4609375 1.0048829zm6.6035156 0c.3509115 0 .7154948-.0524089 1.09375-.1572266v-1.2851563c-.1959635.045573-.3896484.0683594-.5810547.0683594-.2871093 0-.4864909-.0626627-.5981445-.1879883-.1116537-.1253255-.1674805-.3292643-.1674805-.6118164v-4.1289062h1.3056641v-1.2304688h-1.3056641v-1.7978515h-1.6611328v1.7978515h-1.2167969v1.2304688h1.2167969v4.1904297c0 1.4082031.6380208 2.1123047 1.9140625 2.1123047z" fill="#fff" fill-rule="nonzero"/></g></svg>