<svg height="30" viewBox="0 0 81 30" width="81" xmlns="http://www.w3.org/2000/svg"><g fill="none" fill-rule="evenodd"><rect fill="#f7b500" height="30" rx="4" width="81"/><path d="m19.9580078 20 2.5634766-7.3964844h-1.7158203l-1.5654297 5.2910156-1.5859375-5.2910156h-1.7226563l2.5839844 7.3964844zm5.7832031.1367188c.765625 0 1.4127605-.2757162 1.9414063-.8271485.0546875.3190104.1184896.5491537.1914062.6904297h1.6953125v-.1162109c-.1868489-.3964844-.2802734-.9274089-.2802734-1.5927735v-3.3359375c-.0136719-.7884114-.2779948-1.4002278-.7929687-1.8354492-.514974-.4352213-1.2054037-.652832-2.0712891-.652832-.5696615 0-1.0857748.1002604-1.5483399.3007812-.4625651.2005209-.8282877.4773763-1.0971679.8305664s-.4033203.7325847-.4033203 1.1381836h1.6611328c0-.2916666.1207682-.5320638.3623047-.7211914.2415364-.1891276.5514323-.2836914.9296875-.2836914.4375 0 .7633463.1150716.977539.3452149.2141927.2301432.3212891.536621.3212891.9194336v.4853515h-1.0185547c-1.0891927 0-1.9265951.2107748-2.512207.6323242-.585612.4215495-.878418 1.02653-.878418 1.8149414 0 .624349.2347005 1.1484375.7041016 1.5722657.469401.4238281 1.0755208.6357422 1.8183593.6357422zm.3076172-1.3330079c-.3554687 0-.6391601-.0945638-.8510742-.2836914s-.3178711-.4431966-.3178711-.762207c0-.3919271.1549479-.694987.4648438-.9091797.3098958-.2141927.7724609-.321289 1.3876953-.321289h.8955078v1.3945312c-.1458333.2688802-.363444.4830729-.652832.6425781-.2893881.1595052-.5981446.2392578-.9262696.2392578zm6.6376953 1.1962891v-5.0585938c.264323-.5833333.7770183-.875 1.538086-.875.2324218 0 .4580078.0182292.6767578.0546876l.0068359-1.5585938c-.1549479-.0638021-.3509114-.0957031-.5878906-.0957031-.7109375 0-1.2669271.321289-1.6679687.9638672l-.0410157-.8271485h-1.5859375v7.3964844zm4.2041016-8.4423828c.3007812 0 .5332031-.0831706.6972656-.2495117.1640625-.1663412.2460938-.3748373.2460938-.6254883 0-.2552083-.0820313-.4671224-.2460938-.6357422-.1640625-.16861979-.3964844-.25292969-.6972656-.25292969s-.5320638.0843099-.6938477.25292969c-.1617838.1686198-.2426757.3805339-.2426757.6357422 0 .250651.0808919.4591471.2426757.6254883.1617839.1663411.3930665.2495117.6938477.2495117zm.8271484 8.4423828v-7.3964844h-1.6611328v7.3964844zm4.0947266.1367188c.765625 0 1.4127604-.2757162 1.9414062-.8271485.0546876.3190104.1184896.5491537.1914063.6904297h1.6953125v-.1162109c-.186849-.3964844-.2802734-.9274089-.2802734-1.5927735v-3.3359375c-.0136719-.7884114-.2779948-1.4002278-.7929688-1.8354492-.5149739-.4352213-1.2054036-.652832-2.071289-.652832-.5696615 0-1.0857748.1002604-1.5483399.3007812-.4625651.2005209-.8282878.4773763-1.097168.8305664s-.4033203.7325847-.4033203 1.1381836h1.6611328c0-.2916666.1207683-.5320638.3623047-.7211914.2415365-.1891276.5514323-.2836914.9296875-.2836914.4375 0 .7633464.1150716.9775391.3452149.2141927.2301432.3212891.536621.3212891.9194336v.4853515h-1.0185547c-1.0891927 0-1.9265951.2107748-2.5122071.6323242-.5856119.4215495-.8784179 1.02653-.8784179 1.8149414 0 .624349.2347005 1.1484375.7041015 1.5722657.4694011.4238281 1.0755209.6357422 1.8183594.6357422zm.3076172-1.3330079c-.3554688 0-.6391602-.0945638-.8510742-.2836914-.2119141-.1891276-.3178711-.4431966-.3178711-.762207 0-.3919271.1549479-.694987.4648437-.9091797.3098959-.2141927.772461-.321289 1.3876953-.321289h.8955079v1.3945312c-.1458334.2688802-.3634441.4830729-.6528321.6425781s-.5981445.2392578-.9262695.2392578zm8.5859375 1.3330079c.8977864 0 1.6030273-.3395183 2.1157226-1.0185547.5126954-.6790365.769043-1.5927735.769043-2.741211v-.0957031c0-1.203125-.257487-2.1396484-.7724609-2.8095703-.514974-.6699219-1.2236328-1.0048828-2.1259766-1.0048828-.8111979 0-1.4560547.2825521-1.9345703.8476562v-3.8144531h-1.6611328v10.5h1.5039062l.0820313-.7998047c.4830729.624349 1.1575521.9365235 2.0234375.9365235zm-.4169922-1.3535157c-.7246094 0-1.235026-.321289-1.53125-.9638672v-3.0488281c.2916667-.6289062.797526-.9433594 1.5175781-.9433594.5377604 0 .9479167.2005209 1.2304688.6015625.2825521.4010417.4238281 1.0026042.4238281 1.8046875v.2119141c-.0091146.7838542-.1549479 1.3694661-.4375 1.7568359s-.6835937.5810547-1.203125.5810547zm6.4599609 1.2167969v-10.5h-1.6611328v10.5zm5.0654297.1367188c.6152344 0 1.1700847-.1219076 1.6645508-.3657227.4944662-.2438151.8898112-.5867513 1.1860352-1.0288086l-.8955079-.8544922c-.4785156.6152344-1.0983072.9228516-1.859375.9228516-.5423177 0-.9923502-.1777344-1.3500976-.5332031-.3577474-.3554688-.5616862-.8385417-.6118164-1.4492188h4.8330078v-.6699219c0-1.1757812-.2745768-2.0849609-.8237305-2.727539-.5491536-.6425782-1.3273112-.9638672-2.3344726-.9638672-.6334636 0-1.2076823.1617838-1.7226563.4853515-.5149739.3235677-.9148763.7758789-1.199707 1.3569336s-.4272461 1.2407227-.4272461 1.9790039v.2050782c0 1.1028645.3269857 1.9858398.980957 2.6489257.6539714.663086 1.5073243.994629 2.5600586.994629zm1.3261719-4.5253907h-3.1650391c.077474-.5696614.2563477-1.0139974.5366211-1.3330078.2802735-.3190104.6482748-.4785156 1.1040039-.4785156.4602865 0 .8203125.1424154 1.0800782.4272461.2597656.2848307.4078776.7052409.4443359 1.2612304z" fill="#fff" fill-rule="nonzero"/></g></svg>