<svg viewBox="0 0 21 21" xmlns="http://www.w3.org/2000/svg"><path d="m8.25 9h-1a.75.75 0 0 1 0-1.5h1a.75.75 0 0 1 0 1.5z" fill="#f7b500"/><path d="m13.25 9h-3a.75.75 0 0 1 0-1.5h3a.75.75 0 0 1 0 1.5z" fill="#44d7b6"/><path d="m13.25 12.5h-4a.75.75 0 0 1 0-1.5h4a.75.75 0 0 1 0 1.5z" fill="#ccc"/><path d="m11.25 16h-4a.75.75 0 0 1 0-1.5h4a.75.75 0 0 1 0 1.5z" fill="#f35c87"/><path d="m16.5 7a.76.76 0 0 0 .75-.75v-1.75h1.75a.75.75 0 0 0 0-1.5h-1.75v-1.75a.75.75 0 0 0 -1.5 0v1.75h-1.75a.75.75 0 0 0 0 1.5h1.75v1.75a.76.76 0 0 0 .75.75z" fill="#777"/><path d="m16.5 8.1a1.73 1.73 0 0 1 -.75-.18v9.58a1.5 1.5 0 0 1 -1.5 1.5h-8a1.5 1.5 0 0 1 -1.5-1.5v-11.5a1.5 1.5 0 0 1 1.5-1.5h6.08a1.65 1.65 0 0 1 0-1.5h-6.08a3 3 0 0 0 -3 3v11.5a3 3 0 0 0 3 3h8a3 3 0 0 0 3-3v-9.58a1.73 1.73 0 0 1 -.75.18z" fill="#777"/><circle cx="13.25" cy="15.25" fill="#b55bcd" r=".75"/><circle cx="7.25" cy="11.75" fill="#50d764" r=".75"/></svg>