<svg viewBox="0 0 80 30" xmlns="http://www.w3.org/2000/svg"><g fill="#d7d7d7"><path d="m47.5 23.62a2.75 2.75 0 0 1 0-5.5h24a4.25 4.25 0 0 0 0-8.5h-30.56a5.49 5.49 0 0 0 -5.44-4.74h-3a1.5 1.5 0 0 0 -1.5 1.5v8a1.5 1.5 0 0 0 1.5 1.5h3a5.5 5.5 0 0 0 5.44-4.76h30.56a2.75 2.75 0 0 1 0 5.5h-24a4.25 4.25 0 0 0 0 8.5h32.5v-1.5zm-12.75-9.24h-2.25v-8h2.25zm4.75-4a4 4 0 0 1 -3.25 3.92v-7.85a4 4 0 0 1 3.25 3.92z"/><path d="m25.8 11.73h-2.3v-2.73h2.3a.75.75 0 1 0 0-1.5h-2.3v-1.12a1.5 1.5 0 0 0 -1.5-1.5 5.5 5.5 0 0 0 -5.44 4.74h-16.56v1.5h16.56a5.51 5.51 0 0 0 5.44 4.76 1.5 1.5 0 0 0 1.5-1.5v-1.15h2.3a.75.75 0 0 0 0-1.5zm-3.8 2.65a4 4 0 0 1 0-8z"/></g></svg>