<svg viewBox="0 0 18 18" xmlns="http://www.w3.org/2000/svg"><g fill="#aaa"><path d="m5.27 6.52a.75.75 0 0 0 -.75-.75h-3.2a.75.75 0 0 0 0 1.5h3.2a.74.74 0 0 0 .75-.75z"/><path d="m17.21 13.34-7.36-7.34a.74.74 0 0 0 -.85-.17.75.75 0 0 0 -.47.69v10.48a.74.74 0 0 0 .47.69.73.73 0 0 0 .81-.16l2.94-2.93h3.89a.75.75 0 0 0 .69-.46.78.78 0 0 0 -.12-.8zm-4.73-.22a.79.79 0 0 0 -.54.22l-1.87 1.87v-6.88l4.79 4.79z"/><path d="m6.5 8.64a.75.75 0 0 0 -1 .28l-1.6 2.77a.75.75 0 0 0 1.29.75l1.6-2.77a.75.75 0 0 0 -.29-1.03z"/><path d="m9 4.4a.75.75 0 0 0 1-.27l1.6-2.78a.75.75 0 0 0 -1.32-.75l-1.6 2.78a.74.74 0 0 0 .32 1.02z"/><path d="m5.17.6a.75.75 0 1 0 -1.29.75l1.6 2.78a.75.75 0 0 0 1 .27.74.74 0 0 0 .27-1z"/></g></svg>