<svg id="Layer_1" data-name="Layer 1" xmlns="http://www.w3.org/2000/svg" viewBox="0 0 18 18"><defs><style>.cls-1{fill:#777;}</style></defs><path class="cls-1" d="M14.75,2.5H7.2a1,1,0,0,0-1-1H4a1,1,0,0,0-1,1s0,0,0,0a3,3,0,0,0-2.76,3v8a3,3,0,0,0,3,3h11.5a3,3,0,0,0,3-3v-8A3,3,0,0,0,14.75,2.5Zm1.5,11a1.5,1.5,0,0,1-1.5,1.5H3.25a1.5,1.5,0,0,1-1.5-1.5v-8A1.5,1.5,0,0,1,3.25,4h11.5a1.5,1.5,0,0,1,1.5,1.5Z"/><path class="cls-1" d="M9,5.1a4.4,4.4,0,1,0,4.4,4.4A4.4,4.4,0,0,0,9,5.1Zm0,7.3a2.9,2.9,0,1,1,2.9-2.9A2.9,2.9,0,0,1,9,12.4Z"/><circle class="cls-1" cx="14.25" cy="6" r="0.95"/></svg>