<svg viewBox="0 0 18 18" xmlns="http://www.w3.org/2000/svg"><g fill="#777"><path d="m11.5 2.17a2.52 2.52 0 0 1 2.17 1.25l2.5 4.33a2.53 2.53 0 0 1 0 2.5l-2.5 4.33a2.52 2.52 0 0 1 -2.17 1.25h-5a2.52 2.52 0 0 1 -2.17-1.25l-2.5-4.33a2.53 2.53 0 0 1 0-2.5l2.5-4.33a2.52 2.52 0 0 1 2.17-1.25zm0-1.5h-5a4 4 0 0 0 -3.5 2l-2.46 4.33a4 4 0 0 0 0 4l2.46 4.33a4 4 0 0 0 3.46 2h5a4 4 0 0 0 3.46-2l2.54-4.33a4 4 0 0 0 0-4l-2.46-4.33a4 4 0 0 0 -3.46-2z"/><path d="m9 6.45a2.55 2.55 0 1 1 -2.55 2.55 2.55 2.55 0 0 1 2.55-2.55m0-1.45a4.05 4.05 0 1 0 4.05 4 4 4 0 0 0 -4.05-4z"/></g></svg>